<svg width="46" height="41" viewBox="0 0 46 41" fill="none" xmlns="http://www.w3.org/2000/svg">
<path fill-rule="evenodd" clip-rule="evenodd" d="M43.3785 0H2.50523C0.901689 0 0 0.763825 0 2.35432V38.7472C0 40.3377 0.770091 41 2.37363 40.9758H43.5101C45.1088 40.9758 45.7278 40.2652 45.7278 38.6747V2.41717C45.7278 0.841175 44.9821 0 43.3785 0ZM17.2393 8.38709C17.2393 6.73375 15.6796 5.39464 13.7544 5.39464C11.8292 5.39464 10.2695 6.73375 10.2695 8.38709C10.2695 10.0404 11.8292 11.3795 13.7544 11.3795C15.6796 11.3795 17.2393 10.0404 17.2393 8.38709ZM36.1455 11.9983C32.0494 12.2152 27.9446 12.2152 23.8485 11.9983C23.7347 12.0045 23.6232 12.033 23.5206 12.0821C23.418 12.1312 23.3262 12.2 23.2505 12.2845C23.1748 12.369 23.1167 12.4675 23.0797 12.5744C23.0426 12.6813 23.0272 12.7944 23.0345 12.9072V15.9528C23.0259 16.0659 23.0403 16.1796 23.0769 16.287C23.1134 16.3945 23.1714 16.4935 23.2473 16.5783C23.3233 16.6631 23.4156 16.7319 23.5189 16.7805C23.6221 16.8292 23.7342 16.8568 23.8485 16.8617C24.8103 16.7747 25.7672 16.7086 26.7192 16.6635C26.7387 17.0696 26.7615 17.4982 26.7875 17.9494C26.9174 20.1474 26.9824 21.7927 26.9824 22.8853C26.9824 23.6974 26.9045 24.1035 26.7631 24.1035C26.6154 24.0777 26.4748 24.0214 26.3505 23.9381C26.2262 23.8548 26.121 23.7464 26.0418 23.6201C25.1137 22.4893 24.3892 21.5669 23.8494 20.8797C23.7315 20.7295 23.6224 20.5907 23.5219 20.4633L17.4002 12.7283C17.366 12.6856 17.3338 12.6451 17.3034 12.6068C17.0823 12.3282 16.9548 12.1675 16.8348 12.1675C16.5095 12.2006 16.1783 12.2389 15.8431 12.2777C14.4609 12.4378 13.0121 12.6056 11.6391 12.4383C11.2004 12.3851 10.9811 12.5495 10.9811 12.7815C10.9811 16.2725 10.9738 19.7623 10.9665 23.2515C10.9592 26.7394 10.9519 30.2268 10.9519 33.7142C10.942 33.7799 10.9478 33.847 10.9688 33.9102C10.9898 33.9733 11.0254 34.0306 11.0728 34.0776C11.1202 34.1246 11.178 34.16 11.2417 34.1808C11.3053 34.2016 11.373 34.2074 11.4393 34.1976H17.2198C17.522 34.1976 17.6682 34.0139 17.6682 33.6465C17.6682 32.4427 17.6292 30.6299 17.561 28.2127C17.4928 25.7955 17.4538 23.9827 17.4538 22.7741C17.4484 22.7103 17.4579 22.6462 17.4815 22.5866C17.5052 22.5271 17.5424 22.4738 17.5903 22.4308C17.6862 22.4746 17.7711 22.539 17.8388 22.6194C19.4082 24.508 20.578 25.9357 21.3481 26.9026C24.1523 30.3704 25.9573 32.6103 26.7631 33.6223C27.0425 33.964 27.2814 34.1348 27.4796 34.1348C27.772 34.1348 28.2107 34.1348 28.7858 34.1976C29.3609 34.2605 29.8191 34.2605 30.0872 34.2605C30.3552 34.2605 30.7549 34.2605 31.2959 34.2266C31.8369 34.1928 32.1879 34.1928 32.5095 34.1928C32.8312 34.1928 32.9969 34.0526 32.9969 33.7722C32.9969 30.2698 33.0761 26.7675 33.1552 23.2663C33.2048 21.0696 33.2544 18.8734 33.2845 16.678C34.2431 16.7231 35.1967 16.7876 36.1455 16.8714C36.2607 16.8666 36.3736 16.8387 36.4776 16.7894C36.5815 16.7401 36.6743 16.6704 36.7504 16.5846C36.8265 16.4988 36.8842 16.3985 36.9202 16.2899C36.9561 16.1814 36.9695 16.0667 36.9595 15.9528V12.9169C36.9681 12.8033 36.9538 12.6891 36.9173 12.5811C36.8808 12.4731 36.823 12.3734 36.7472 12.2879C36.6714 12.2023 36.5791 12.1327 36.4758 12.0829C36.3725 12.0332 36.2602 12.0045 36.1455 11.9983Z" fill="white"/>
</svg>
